<?xml version="1.0" standalone="no"?>
<!DOCTYPE svg PUBLIC "-//W3C//DTD SVG 20010904//EN"
 "http://www.w3.org/TR/2001/REC-SVG-20010904/DTD/svg10.dtd">
<svg version="1.0" xmlns="http://www.w3.org/2000/svg"
 width="800.000000pt" height="800.000000pt" viewBox="0 0 800.000000 800.000000"
 preserveAspectRatio="xMidYMid meet">
<metadata>
Created by potrace 1.11, written by Peter Selinger 2001-2013
</metadata>
<g transform="translate(0.000000,800.000000) scale(0.100000,-0.100000)"
fill="#000000" stroke="none">
<path d="M5330 6194 c-689 -91 -1380 -402 -2045 -919 l-109 -85 -378 0 -378 0
0 -348 0 -348 -266 -253 c-147 -138 -268 -250 -271 -248 -2 3 -80 267 -172
588 l-168 584 -272 3 -271 2 -10 -22 c-6 -13 -228 -747 -495 -1633 -267 -885
-488 -1616 -490 -1623 -4 -10 55 -12 287 -10 l292 3 118 390 117 390 83 80
c230 221 529 497 534 492 4 -3 90 -309 193 -679 l188 -673 616 -3 617 -2 2
527 3 526 241 -524 241 -524 391 -3 390 -2 -117 212 c-64 117 -182 330 -261
473 -79 143 -167 302 -196 354 l-52 94 61 29 c167 79 304 223 393 412 18 39
33 66 34 60 3 -95 27 -308 46 -411 114 -623 516 -1126 1002 -1255 99 -26 326
-36 442 -19 94 14 233 57 312 97 359 179 635 568 763 1075 14 54 25 100 25
103 0 3 -152 6 -338 6 l-338 0 -23 -47 c-111 -229 -299 -391 -491 -423 -365
-61 -702 307 -750 819 -42 449 191 864 536 956 86 23 214 21 296 -5 87 -27
207 -107 267 -180 57 -69 133 -189 156 -247 l17 -43 339 0 c186 0 339 3 339 6
0 3 -11 49 -25 103 -162 639 -564 1095 -1044 1185 -190 36 -433 15 -606 -53
-339 -132 -649 -478 -799 -893 l-34 -93 -6 50 c-29 225 -62 347 -128 480 -54
107 -89 157 -167 239 -80 83 -132 120 -228 162 -80 34 -80 32 -2 77 193 110
482 239 704 313 373 126 690 180 994 171 192 -6 306 -25 465 -78 581 -194
1048 -758 1302 -1571 l18 -58 378 0 c208 0 378 3 378 6 0 9 -115 253 -161 339
-117 223 -257 456 -380 632 -641 915 -1359 1337 -2109 1237z m-1916 -1769
c154 -53 216 -158 216 -361 0 -126 -24 -211 -76 -272 -76 -90 -176 -122 -376
-122 l-128 0 0 391 0 392 158 -5 c112 -4 171 -10 206 -23z m-996 -1782 l-3
-506 -227 790 c-126 434 -228 795 -228 800 0 6 102 106 228 223 l227 212 3
-506 c1 -278 1 -734 0 -1013z m-1119 1102 l69 -249 -121 -115 c-67 -64 -158
-151 -203 -193 -44 -43 -83 -78 -86 -78 -2 0 51 183 119 408 68 224 128 424
134 446 6 21 12 36 14 34 3 -2 36 -116 74 -253z"/>
</g>
</svg>
